<?xml version="1.0" encoding="UTF-8"?>
<svg id="Layer_1" data-name="Layer 1" xmlns="http://www.w3.org/2000/svg" viewBox="0 0 874.89 199.44">
  <g>
    <path d="M19.16,4.02v73.25H1.7V4.02h17.46ZM47.03,33.1v13.58H13.37v-13.58h33.66ZM58.75,4.02v73.25h-17.41V4.02h17.41Z" style="fill: #fff;"/>
    <path d="M96.13,44.02l.1,9.06h-5.89c-1.31,0-2.42.23-3.32.68-.91.45-1.64,1.07-2.21,1.86-.57.79-.98,1.66-1.23,2.62-.25.96-.38,1.95-.38,2.99,0,1.24.2,2.23.6,2.97.4.74.94,1.26,1.61,1.56.67.3,1.41.45,2.21.45,1.58,0,2.91-.32,4-.96,1.09-.64,1.9-1.41,2.44-2.31.54-.91.77-1.71.7-2.41l2.72,6.79c-.64,1.27-1.3,2.56-1.99,3.85-.69,1.29-1.55,2.47-2.59,3.55-1.04,1.07-2.31,1.94-3.8,2.59-1.49.65-3.33.98-5.51.98-3.09,0-5.93-.63-8.53-1.89-2.6-1.26-4.68-3.1-6.24-5.53-1.56-2.43-2.34-5.36-2.34-8.78,0-2.68.45-5.12,1.36-7.32.91-2.2,2.31-4.1,4.2-5.71,1.89-1.61,4.37-2.85,7.42-3.72,3.05-.87,6.72-1.31,11.02-1.31h5.63ZM94.16,63.59v-23.19c0-1.54-.17-2.8-.5-3.77-.34-.97-.86-1.7-1.58-2.19-.72-.49-1.74-.73-3.04-.73-1.04,0-1.91.21-2.62.63-.7.42-1.22,1.06-1.56,1.91-.34.86-.5,1.97-.5,3.35h-16.75c0-2.52.53-4.85,1.58-7.02,1.06-2.16,2.56-4.05,4.5-5.66,1.94-1.61,4.28-2.86,7.02-3.75,2.73-.89,5.79-1.33,9.18-1.33,4.02,0,7.63.65,10.82,1.96,3.19,1.31,5.7,3.34,7.55,6.09,1.84,2.75,2.77,6.29,2.77,10.61v23.04c0,3.56.19,6.25.58,8.07.39,1.83.93,3.43,1.63,4.8v.86h-16.75c-.8-1.68-1.39-3.73-1.76-6.16-.37-2.43-.55-4.94-.55-7.52Z" style="fill: #fff;"/>
    <path d="M136.98,34.36v42.91h-16.7V22.84h15.65l1.06,11.52ZM134.96,48.19l-3.77.1c-.03-3.82.36-7.35,1.18-10.56.82-3.22,2.04-6.02,3.67-8.4,1.63-2.38,3.65-4.23,6.06-5.53,2.41-1.31,5.21-1.96,8.4-1.96,2.15,0,4.1.36,5.86,1.08,1.76.72,3.29,1.84,4.58,3.37,1.29,1.53,2.29,3.5,2.99,5.94.7,2.43,1.06,5.34,1.06,8.73v36.32h-16.75v-34.16c0-2.31-.21-4.06-.63-5.23-.42-1.17-1.02-1.96-1.81-2.36-.79-.4-1.79-.6-2.99-.6s-2.26.34-3.24,1.01c-.99.67-1.83,1.6-2.52,2.79-.69,1.19-1.21,2.59-1.56,4.2-.35,1.61-.53,3.37-.53,5.28ZM163.09,48.19l-4.58.1c-.03-3.82.33-7.35,1.08-10.56.75-3.22,1.92-6.02,3.5-8.4,1.58-2.38,3.55-4.23,5.94-5.53,2.38-1.31,5.18-1.96,8.4-1.96,2.25,0,4.33.37,6.24,1.11,1.91.74,3.56,1.93,4.96,3.57,1.39,1.64,2.47,3.82,3.24,6.51.77,2.7,1.16,6.03,1.16,9.99v34.26h-16.8v-34.26c0-2.25-.21-3.95-.63-5.11-.42-1.16-1.02-1.94-1.81-2.36-.79-.42-1.74-.63-2.84-.63-1.38,0-2.55.34-3.52,1.01-.97.67-1.79,1.6-2.44,2.79s-1.13,2.59-1.43,4.2c-.3,1.61-.45,3.37-.45,5.28Z" style="fill: #fff;"/>
    <path d="M202.38,8.8c0-2.41.85-4.39,2.54-5.94,1.69-1.54,3.9-2.31,6.62-2.31s4.97.77,6.67,2.31c1.69,1.54,2.54,3.52,2.54,5.94s-.85,4.39-2.54,5.94c-1.69,1.54-3.92,2.31-6.67,2.31s-4.92-.77-6.62-2.31c-1.69-1.54-2.54-3.52-2.54-5.94ZM220.03,22.84v54.43h-16.75V22.84h16.75Z" style="fill: #fff;"/>
    <path d="M228.08,51.72v-3.07c0-4.29.42-8.1,1.26-11.42.84-3.32,2.07-6.13,3.7-8.43,1.63-2.3,3.67-4.03,6.14-5.21,2.46-1.17,5.29-1.76,8.48-1.76,2.78,0,5.2.7,7.24,2.09,2.04,1.39,3.78,3.34,5.21,5.84,1.43,2.5,2.6,5.43,3.52,8.78.92,3.35,1.62,6.94,2.09,10.77v2.36c-.5,3.59-1.21,6.98-2.11,10.19-.91,3.2-2.08,6.04-3.52,8.5-1.44,2.47-3.19,4.4-5.26,5.81-2.06,1.41-4.49,2.11-7.27,2.11-3.22,0-6.04-.61-8.45-1.84-2.41-1.22-4.44-2.98-6.06-5.28-1.63-2.3-2.86-5.08-3.7-8.35-.84-3.27-1.26-6.97-1.26-11.09ZM244.84,48.65v3.07c0,2.18.1,4.11.3,5.79.2,1.68.57,3.09,1.11,4.23.54,1.14,1.27,2,2.19,2.59.92.59,2.07.88,3.45.88,1.88,0,3.42-.49,4.63-1.48,1.21-.99,2.1-2.41,2.67-4.25.57-1.84.77-4.01.6-6.49v-5.03c.1-2.15,0-4.03-.3-5.66-.3-1.63-.79-2.98-1.46-4.08-.67-1.09-1.51-1.91-2.52-2.46-1.01-.55-2.18-.83-3.52-.83s-2.47.29-3.4.85c-.92.57-1.65,1.43-2.19,2.59-.54,1.16-.93,2.59-1.18,4.3s-.38,3.71-.38,5.99ZM258.42,64.8V0h16.8v77.27h-15.09l-1.71-12.48Z" style="fill: #fff;"/>
    <path d="M285.23,4.02h26.91c5.27,0,9.84.84,13.71,2.52,3.87,1.68,6.86,4.16,8.95,7.45,2.1,3.29,3.14,7.35,3.14,12.17,0,4.19-.59,7.7-1.76,10.51-1.17,2.82-2.83,5.14-4.96,6.97-2.13,1.83-4.6,3.33-7.42,4.5l-5.68,3.27h-21.93l-.1-13.63h15.85c1.91,0,3.5-.4,4.75-1.21,1.26-.81,2.21-1.95,2.84-3.45.64-1.49.96-3.28.96-5.36s-.32-3.92-.96-5.43c-.64-1.51-1.57-2.67-2.79-3.47-1.22-.8-2.76-1.21-4.6-1.21h-9.51v59.61h-17.41V4.02ZM321.5,77.27l-14.59-32.4,18.46-.1,14.79,31.74v.75h-18.66Z" style="fill: #fff;"/>
    <path d="M372.11,78.28c-4.16,0-7.87-.62-11.12-1.86-3.25-1.24-6-2.99-8.23-5.26s-3.92-4.95-5.08-8.05c-1.16-3.1-1.74-6.51-1.74-10.24v-3.92c0-4.19.51-7.95,1.53-11.27,1.02-3.32,2.54-6.16,4.55-8.53,2.01-2.36,4.55-4.18,7.62-5.43,3.07-1.26,6.65-1.89,10.74-1.89,3.62,0,6.86.56,9.71,1.69,2.85,1.12,5.27,2.78,7.24,4.98,1.98,2.2,3.49,4.93,4.53,8.2,1.04,3.27,1.56,7.04,1.56,11.29v7.4h-41.15v-10.61h24.8v-1.61c.03-2.01-.22-3.62-.75-4.83-.54-1.21-1.32-2.08-2.34-2.62-1.02-.54-2.27-.8-3.75-.8-1.61,0-2.91.32-3.9.96-.99.64-1.74,1.55-2.26,2.74-.52,1.19-.87,2.66-1.06,4.4-.19,1.74-.28,3.72-.28,5.94v3.92c0,2.18.23,4.05.7,5.61.47,1.56,1.16,2.83,2.06,3.8.91.97,2,1.7,3.29,2.19,1.29.49,2.76.73,4.4.73,2.18,0,4.31-.39,6.39-1.18,2.08-.79,3.86-2.07,5.33-3.85l7.19,9.71c-1.01,1.38-2.46,2.71-4.35,4-1.9,1.29-4.16,2.35-6.79,3.17-2.63.82-5.59,1.23-8.88,1.23Z" style="fill: #fff;"/>
    <path d="M441.74,32l-30.99,45.28h-11.52v-9.46l30.99-44.97h11.52v9.16ZM436.31,22.84v13.08h-36.17v-13.08h36.17ZM442.04,64.19v13.08h-38.84v-13.08h38.84Z" style="fill: #fff;"/>
    <path d="M477.96,44.02l.1,9.06h-5.89c-1.31,0-2.41.23-3.32.68-.91.45-1.64,1.07-2.21,1.86-.57.79-.98,1.66-1.23,2.62-.25.96-.38,1.95-.38,2.99,0,1.24.2,2.23.6,2.97.4.74.94,1.26,1.61,1.56.67.3,1.41.45,2.21.45,1.58,0,2.91-.32,4-.96,1.09-.64,1.9-1.41,2.44-2.31.54-.91.77-1.71.71-2.41l2.72,6.79c-.64,1.27-1.3,2.56-1.99,3.85-.69,1.29-1.55,2.47-2.59,3.55-1.04,1.07-2.31,1.94-3.8,2.59-1.49.65-3.33.98-5.51.98-3.09,0-5.93-.63-8.53-1.89-2.6-1.26-4.68-3.1-6.24-5.53-1.56-2.43-2.34-5.36-2.34-8.78,0-2.68.45-5.12,1.36-7.32.91-2.2,2.31-4.1,4.2-5.71,1.89-1.61,4.37-2.85,7.42-3.72,3.05-.87,6.72-1.31,11.02-1.31h5.63ZM476,63.59v-23.19c0-1.54-.17-2.8-.5-3.77-.33-.97-.86-1.7-1.58-2.19-.72-.49-1.74-.73-3.04-.73-1.04,0-1.91.21-2.62.63-.7.42-1.22,1.06-1.56,1.91-.34.86-.5,1.97-.5,3.35h-16.75c0-2.52.53-4.85,1.58-7.02s2.56-4.05,4.5-5.66c1.94-1.61,4.28-2.86,7.02-3.75,2.73-.89,5.79-1.33,9.18-1.33,4.02,0,7.63.65,10.82,1.96s5.7,3.34,7.55,6.09c1.84,2.75,2.77,6.29,2.77,10.61v23.04c0,3.56.19,6.25.58,8.07.39,1.83.93,3.43,1.64,4.8v.86h-16.75c-.8-1.68-1.39-3.73-1.76-6.16-.37-2.43-.55-4.94-.55-7.52Z" style="fill: #fff;"/>
    <path d="M561.52,57.8c0-1.14-.14-2.17-.43-3.09-.29-.92-.8-1.79-1.56-2.59-.75-.8-1.87-1.62-3.35-2.44-1.48-.82-3.42-1.69-5.84-2.59-2.92-1.07-5.75-2.29-8.5-3.65-2.75-1.36-5.21-2.95-7.37-4.78-2.16-1.83-3.89-3.97-5.18-6.44-1.29-2.47-1.94-5.34-1.94-8.63s.65-5.99,1.96-8.53c1.31-2.53,3.14-4.69,5.48-6.49,2.35-1.79,5.11-3.17,8.3-4.13,3.19-.96,6.67-1.43,10.46-1.43,5,0,9.41.93,13.23,2.79s6.82,4.49,8.98,7.9c2.16,3.4,3.25,7.42,3.25,12.05h-17.36c0-1.84-.31-3.47-.93-4.88-.62-1.41-1.55-2.52-2.79-3.32-1.24-.8-2.83-1.21-4.78-1.21-1.84,0-3.39.34-4.63,1.01-1.24.67-2.18,1.57-2.82,2.69-.64,1.12-.96,2.36-.96,3.7,0,1.11.28,2.1.83,2.99.55.89,1.34,1.72,2.36,2.49,1.02.77,2.25,1.51,3.67,2.21,1.42.7,3.01,1.39,4.75,2.06,3.59,1.24,6.78,2.62,9.58,4.15,2.8,1.53,5.16,3.25,7.09,5.18,1.93,1.93,3.39,4.12,4.38,6.56.99,2.45,1.48,5.22,1.48,8.3,0,3.29-.59,6.21-1.76,8.75-1.17,2.55-2.86,4.7-5.06,6.46-2.2,1.76-4.83,3.09-7.9,4-3.07.91-6.51,1.36-10.34,1.36-3.52,0-6.98-.48-10.36-1.43-3.39-.96-6.45-2.43-9.18-4.43-2.73-2-4.92-4.56-6.57-7.7-1.64-3.14-2.46-6.87-2.46-11.19h17.51c0,2.15.23,3.96.68,5.43.45,1.48,1.14,2.66,2.06,3.55.92.89,2.07,1.53,3.45,1.91,1.37.39,3,.58,4.88.58s3.38-.33,4.5-.98c1.12-.65,1.93-1.53,2.42-2.62.49-1.09.73-2.29.73-3.6Z" style="fill: #fff;"/>
    <path d="M614.7,44.02l.1,9.06h-5.89c-1.31,0-2.41.23-3.32.68-.91.45-1.64,1.07-2.21,1.86-.57.79-.98,1.66-1.23,2.62-.25.96-.38,1.95-.38,2.99,0,1.24.2,2.23.6,2.97.4.74.94,1.26,1.61,1.56.67.3,1.41.45,2.21.45,1.58,0,2.91-.32,4-.96,1.09-.64,1.9-1.41,2.44-2.31.54-.91.77-1.71.71-2.41l2.72,6.79c-.64,1.27-1.3,2.56-1.99,3.85-.69,1.29-1.55,2.47-2.59,3.55-1.04,1.07-2.31,1.94-3.8,2.59-1.49.65-3.33.98-5.51.98-3.09,0-5.93-.63-8.53-1.89-2.6-1.26-4.68-3.1-6.24-5.53-1.56-2.43-2.34-5.36-2.34-8.78,0-2.68.45-5.12,1.36-7.32.91-2.2,2.31-4.1,4.2-5.71,1.89-1.61,4.37-2.85,7.42-3.72,3.05-.87,6.72-1.31,11.02-1.31h5.63ZM612.73,63.59v-23.19c0-1.54-.17-2.8-.5-3.77-.33-.97-.86-1.7-1.58-2.19-.72-.49-1.74-.73-3.04-.73-1.04,0-1.91.21-2.62.63-.7.42-1.22,1.06-1.56,1.91-.34.86-.5,1.97-.5,3.35h-16.75c0-2.52.53-4.85,1.58-7.02s2.56-4.05,4.5-5.66c1.94-1.61,4.28-2.86,7.02-3.75,2.73-.89,5.79-1.33,9.18-1.33,4.02,0,7.63.65,10.82,1.96s5.7,3.34,7.55,6.09c1.84,2.75,2.77,6.29,2.77,10.61v23.04c0,3.56.19,6.25.58,8.07.39,1.83.93,3.43,1.64,4.8v.86h-16.75c-.8-1.68-1.39-3.73-1.76-6.16-.37-2.43-.55-4.94-.55-7.52Z" style="fill: #fff;"/>
    <path d="M636.68,51.72v-3.07c0-4.29.42-8.1,1.26-11.42.84-3.32,2.07-6.13,3.7-8.43,1.63-2.3,3.67-4.03,6.14-5.21,2.47-1.17,5.29-1.76,8.48-1.76,2.78,0,5.2.7,7.24,2.09,2.04,1.39,3.78,3.34,5.21,5.84,1.42,2.5,2.6,5.43,3.52,8.78.92,3.35,1.62,6.94,2.09,10.77v2.36c-.5,3.59-1.21,6.98-2.11,10.19-.91,3.2-2.08,6.04-3.52,8.5-1.44,2.47-3.19,4.4-5.26,5.81-2.06,1.41-4.49,2.11-7.27,2.11-3.22,0-6.04-.61-8.45-1.84s-4.44-2.98-6.06-5.28c-1.63-2.3-2.86-5.08-3.7-8.35-.84-3.27-1.26-6.97-1.26-11.09ZM653.43,48.65v3.07c0,2.18.1,4.11.3,5.79.2,1.68.57,3.09,1.11,4.23.54,1.14,1.27,2,2.19,2.59.92.59,2.07.88,3.45.88,1.88,0,3.42-.49,4.63-1.48,1.21-.99,2.1-2.41,2.67-4.25.57-1.84.77-4.01.6-6.49v-5.03c.1-2.15,0-4.03-.3-5.66-.3-1.63-.79-2.98-1.46-4.08-.67-1.09-1.51-1.91-2.52-2.46-1.01-.55-2.18-.83-3.52-.83s-2.47.29-3.4.85c-.92.57-1.65,1.43-2.19,2.59-.54,1.16-.93,2.59-1.18,4.3-.25,1.71-.38,3.71-.38,5.99ZM667.02,64.8V0h16.8v77.27h-15.09l-1.71-12.48Z" style="fill: #fff;"/>
    <path d="M717.88,78.28c-4.16,0-7.87-.62-11.12-1.86-3.25-1.24-6-2.99-8.23-5.26s-3.92-4.95-5.08-8.05c-1.16-3.1-1.74-6.51-1.74-10.24v-3.92c0-4.19.51-7.95,1.53-11.27,1.02-3.32,2.54-6.16,4.55-8.53,2.01-2.36,4.55-4.18,7.62-5.43,3.07-1.26,6.65-1.89,10.74-1.89,3.62,0,6.86.56,9.71,1.69,2.85,1.12,5.26,2.78,7.24,4.98,1.98,2.2,3.49,4.93,4.53,8.2,1.04,3.27,1.56,7.04,1.56,11.29v7.4h-41.15v-10.61h24.8v-1.61c.03-2.01-.22-3.62-.75-4.83-.54-1.21-1.32-2.08-2.34-2.62-1.02-.54-2.27-.8-3.75-.8-1.61,0-2.91.32-3.9.96-.99.64-1.74,1.55-2.26,2.74-.52,1.19-.87,2.66-1.06,4.4-.18,1.74-.28,3.72-.28,5.94v3.92c0,2.18.23,4.05.7,5.61s1.16,2.83,2.06,3.8c.91.97,2,1.7,3.3,2.19,1.29.49,2.76.73,4.4.73,2.18,0,4.31-.39,6.39-1.18,2.08-.79,3.86-2.07,5.33-3.85l7.19,9.71c-1.01,1.38-2.46,2.71-4.35,4-1.9,1.29-4.16,2.35-6.79,3.17-2.63.82-5.59,1.23-8.88,1.23Z" style="fill: #fff;"/>
    <path d="M744.29,51.72v-3.07c0-4.29.48-8.1,1.43-11.42s2.33-6.13,4.12-8.43c1.79-2.3,3.97-4.03,6.51-5.21,2.55-1.17,5.42-1.76,8.6-1.76,3.42,0,6.2.7,8.33,2.09,2.13,1.39,3.82,3.34,5.06,5.84,1.24,2.5,2.21,5.43,2.92,8.78.71,3.35,1.31,6.94,1.81,10.77v2.36c-.54,3.59-1.23,6.98-2.09,10.19-.86,3.2-1.97,6.04-3.35,8.5-1.38,2.47-3.11,4.4-5.21,5.81-2.1,1.41-4.62,2.11-7.57,2.11-3.19,0-6.04-.61-8.55-1.84s-4.67-2.98-6.46-5.28c-1.79-2.3-3.17-5.08-4.12-8.35s-1.43-6.97-1.43-11.09ZM777.39,22.84h15.14v53.12c0,5.03-1.08,9.23-3.25,12.6-2.16,3.37-5.19,5.9-9.08,7.6-3.89,1.69-8.44,2.54-13.63,2.54-2.18,0-4.44-.29-6.77-.88-2.33-.59-4.51-1.39-6.54-2.42s-3.73-2.22-5.11-3.6l6.49-10.26c1.21,1.14,2.76,2.2,4.65,3.17,1.89.97,4.13,1.46,6.72,1.46,2.11,0,3.89-.37,5.33-1.11,1.44-.74,2.54-1.87,3.29-3.4s1.13-3.46,1.13-5.81v-40.15l1.61-12.88ZM761.04,48.65v3.07c0,2.18.17,4.11.5,5.79.33,1.68.85,3.09,1.54,4.23.69,1.14,1.53,2,2.54,2.59,1.01.59,2.2.88,3.57.88,2.15,0,3.87-.49,5.16-1.48,1.29-.99,2.21-2.41,2.77-4.25.55-1.84.76-4.01.63-6.49v-5.03c.07-2.15-.05-4.03-.35-5.66-.3-1.63-.79-2.98-1.46-4.08-.67-1.09-1.56-1.91-2.67-2.46-1.11-.55-2.43-.83-3.97-.83-1.31,0-2.48.29-3.52.85-1.04.57-1.9,1.43-2.59,2.59-.69,1.16-1.22,2.59-1.58,4.3-.37,1.71-.55,3.71-.55,5.99Z" style="fill: #fff;"/>
    <path d="M818.24,0v77.27h-16.75V0h16.75ZM816.28,48.19l-3.87.1c-.03-3.82.38-7.35,1.23-10.56.86-3.22,2.08-6.02,3.67-8.4,1.59-2.38,3.52-4.23,5.79-5.53s4.77-1.96,7.52-1.96c2.45,0,4.7.39,6.77,1.16,2.06.77,3.84,2.01,5.33,3.72,1.49,1.71,2.66,3.94,3.5,6.69.84,2.75,1.26,6.1,1.26,10.06v33.81h-16.85v-33.91c0-2.21-.25-3.93-.75-5.16-.5-1.22-1.24-2.08-2.21-2.57-.97-.49-2.16-.73-3.57-.73-1.71,0-3.09.34-4.12,1.01-1.04.67-1.83,1.6-2.36,2.79-.54,1.19-.89,2.59-1.06,4.2s-.25,3.37-.25,5.28Z" style="fill: #fff;"/>
    <path d="M856.53,8.8c0-2.41.85-4.39,2.54-5.94,1.69-1.54,3.9-2.31,6.62-2.31s4.97.77,6.67,2.31c1.69,1.54,2.54,3.52,2.54,5.94s-.85,4.39-2.54,5.94c-1.69,1.54-3.92,2.31-6.67,2.31s-4.92-.77-6.62-2.31c-1.69-1.54-2.54-3.52-2.54-5.94ZM874.18,22.84v54.43h-16.75V22.84h16.75Z" style="fill: #fff;"/>
  </g>
  <g>
    <path d="M9.28,140.42l10.22,36.63,1.54,9.03h-6.34L0,140.42h9.28ZM18.5,177.05l10.29-36.63h9.35l-14.77,45.66h-6.3l1.44-9.03Z" style="fill: #fff;"/>
    <path d="M42.24,143.3c0-1.25.41-2.29,1.22-3.12s1.93-1.24,3.36-1.24,2.51.41,3.32,1.24,1.22,1.87,1.22,3.12-.41,2.23-1.22,3.06-1.92,1.24-3.32,1.24-2.54-.41-3.36-1.24-1.22-1.85-1.22-3.06ZM50.9,152.15v33.93h-8.19v-33.93h8.19Z" style="fill: #fff;"/>
    <path d="M57.24,169.96v-1.57c0-2.68.27-5.06.82-7.15.54-2.09,1.34-3.86,2.4-5.3,1.06-1.44,2.34-2.54,3.84-3.29,1.51-.75,3.22-1.13,5.14-1.13s3.44.4,4.81,1.19c1.37.79,2.54,1.93,3.51,3.4.97,1.47,1.75,3.21,2.32,5.21.57,2,.99,4.21,1.24,6.63v2.63c-.25,2.32-.67,4.46-1.25,6.43-.59,1.97-1.36,3.67-2.32,5.13-.96,1.45-2.13,2.58-3.51,3.37s-2.99,1.19-4.83,1.19-3.64-.39-5.14-1.16-2.78-1.89-3.83-3.36-1.84-3.23-2.38-5.3c-.54-2.07-.82-4.38-.82-6.93ZM65.42,168.39v1.57c0,1.57.11,2.97.33,4.2.22,1.23.57,2.29,1.07,3.15.49.87,1.13,1.53,1.91,1.99.78.46,1.74.69,2.87.69,1.42,0,2.6-.34,3.53-1.02.93-.68,1.65-1.61,2.15-2.79.5-1.18.83-2.52.97-4.03v-5.74c-.08-1.21-.28-2.32-.6-3.31-.31-.99-.74-1.86-1.27-2.59-.53-.73-1.19-1.3-1.98-1.71-.78-.41-1.71-.61-2.78-.61-1.13,0-2.09.24-2.87.71-.78.47-1.42,1.15-1.91,2.02s-.85,1.94-1.08,3.2c-.23,1.25-.34,2.68-.34,4.26ZM77.09,178.84v-40.93h8.19v48.17h-7.4l-.78-7.25Z" style="fill: #fff;"/>
    <path d="M106.82,186.71c-2.4,0-4.56-.38-6.46-1.14-1.9-.76-3.52-1.85-4.85-3.26-1.33-1.41-2.34-3.09-3.03-5.05s-1.04-4.13-1.04-6.54v-2.13c0-2.72.35-5.13,1.04-7.25.69-2.11,1.67-3.9,2.95-5.36,1.27-1.46,2.8-2.57,4.58-3.32,1.78-.75,3.75-1.13,5.93-1.13s4.24.38,5.96,1.13c1.71.75,3.14,1.84,4.28,3.26,1.14,1.42,2,3.15,2.57,5.19.58,2.04.86,4.34.86,6.92v3.67h-24.49v-5.8h16.47v-.69c-.04-1.4-.26-2.63-.64-3.69-.39-1.06-.99-1.88-1.8-2.48s-1.9-.89-3.26-.89c-1.07,0-2,.22-2.79.67-.79.45-1.44,1.11-1.94,1.98-.5.87-.88,1.96-1.13,3.26-.25,1.31-.38,2.82-.38,4.53v2.13c0,1.53.17,2.87.52,4.03.35,1.16.85,2.14,1.51,2.93.66.79,1.46,1.4,2.42,1.8.95.41,2.04.61,3.28.61,1.67,0,3.17-.32,4.48-.96,1.32-.64,2.47-1.54,3.45-2.71l3.76,4.61c-.67.94-1.56,1.84-2.68,2.71-1.12.87-2.47,1.58-4.06,2.13s-3.42.83-5.49.83Z" style="fill: #fff;"/>
    <path d="M123.85,169.93v-1.6c0-2.55.34-4.86,1.02-6.93.68-2.07,1.66-3.84,2.95-5.3,1.29-1.46,2.83-2.59,4.64-3.39,1.81-.79,3.85-1.19,6.13-1.19s4.36.4,6.18,1.19c1.82.79,3.37,1.92,4.66,3.39,1.29,1.46,2.26,3.23,2.93,5.3.67,2.07,1,4.38,1,6.93v1.6c0,2.55-.33,4.86-1,6.92-.67,2.06-1.65,3.83-2.93,5.3-1.29,1.47-2.83,2.6-4.64,3.39s-3.85,1.18-6.13,1.18-4.33-.39-6.16-1.18-3.39-1.91-4.67-3.39c-1.29-1.47-2.27-3.24-2.95-5.3-.68-2.06-1.02-4.36-1.02-6.92ZM132.03,168.33v1.6c0,1.55.14,2.95.41,4.2.27,1.25.68,2.33,1.24,3.21.55.89,1.24,1.57,2.07,2.04.83.47,1.79.71,2.9.71s2.08-.24,2.92-.71c.84-.47,1.52-1.15,2.05-2.04s.93-1.96,1.19-3.21c.26-1.25.39-2.65.39-4.2v-1.6c0-1.53-.14-2.91-.42-4.16s-.7-2.32-1.24-3.21c-.54-.9-1.23-1.59-2.05-2.09-.83-.49-1.79-.74-2.9-.74s-2.04.25-2.85.74c-.82.49-1.5,1.19-2.05,2.09-.55.9-.97,1.97-1.24,3.21-.27,1.24-.41,2.63-.41,4.16Z" style="fill: #fff;"/>
    <path d="M183.75,140.42v45.66h-8.5v-45.66h8.5ZM203.16,140.42v6.9h-21.92v-6.9h21.92ZM200.37,159.21v6.74h-19.13v-6.74h19.13ZM203.29,179.21v6.87h-22.05v-6.87h22.05Z" style="fill: #fff;"/>
    <path d="M206.68,169.96v-1.57c0-2.68.27-5.06.82-7.15.54-2.09,1.34-3.86,2.4-5.3,1.06-1.44,2.34-2.54,3.84-3.29,1.51-.75,3.22-1.13,5.14-1.13s3.44.4,4.81,1.19c1.37.79,2.54,1.93,3.51,3.4.97,1.47,1.75,3.21,2.32,5.21.57,2,.99,4.21,1.24,6.63v2.63c-.25,2.32-.67,4.46-1.25,6.43-.59,1.97-1.36,3.67-2.32,5.13-.96,1.45-2.13,2.58-3.51,3.37s-2.99,1.19-4.83,1.19-3.64-.39-5.14-1.16-2.78-1.89-3.83-3.36-1.84-3.23-2.38-5.3c-.54-2.07-.82-4.38-.82-6.93ZM214.86,168.39v1.57c0,1.57.11,2.97.33,4.2.22,1.23.57,2.29,1.07,3.15.49.87,1.13,1.53,1.91,1.99.78.46,1.74.69,2.87.69,1.42,0,2.6-.34,3.53-1.02.93-.68,1.65-1.61,2.15-2.79.5-1.18.83-2.52.97-4.03v-5.74c-.08-1.21-.28-2.32-.6-3.31-.31-.99-.74-1.86-1.27-2.59-.53-.73-1.19-1.3-1.98-1.71-.78-.41-1.71-.61-2.78-.61-1.13,0-2.09.24-2.87.71-.78.47-1.42,1.15-1.91,2.02s-.85,1.94-1.08,3.2c-.23,1.25-.34,2.68-.34,4.26ZM226.53,178.84v-40.93h8.19v48.17h-7.4l-.78-7.25Z" style="fill: #fff;"/>
    <path d="M241.96,143.3c0-1.25.41-2.29,1.22-3.12s1.93-1.24,3.36-1.24,2.51.41,3.32,1.24,1.22,1.87,1.22,3.12-.41,2.23-1.22,3.06-1.92,1.24-3.32,1.24-2.54-.41-3.36-1.24-1.22-1.85-1.22-3.06ZM250.62,152.15v33.93h-8.19v-33.93h8.19Z" style="fill: #fff;"/>
    <path d="M273.42,152.15v6.05h-18.22v-6.05h18.22ZM259.93,143.81h8.19v32.43c0,1,.12,1.77.36,2.3.24.53.6.89,1.07,1.08.47.19,1.04.28,1.71.28.5,0,.96-.03,1.38-.09.42-.06.76-.12,1.03-.19l-.03,6.3c-.65.23-1.37.42-2.16.56-.79.15-1.73.22-2.79.22-1.74,0-3.26-.32-4.58-.96-1.32-.64-2.34-1.68-3.07-3.12-.73-1.44-1.1-3.34-1.1-5.71v-33.12Z" style="fill: #fff;"/>
    <path d="M276.71,169.93v-1.6c0-2.55.34-4.86,1.02-6.93.68-2.07,1.66-3.84,2.95-5.3,1.29-1.46,2.83-2.59,4.64-3.39,1.81-.79,3.85-1.19,6.13-1.19s4.36.4,6.18,1.19c1.82.79,3.37,1.92,4.66,3.39,1.29,1.46,2.26,3.23,2.93,5.3.67,2.07,1,4.38,1,6.93v1.6c0,2.55-.33,4.86-1,6.92-.67,2.06-1.65,3.83-2.93,5.3-1.29,1.47-2.83,2.6-4.64,3.39s-3.85,1.18-6.13,1.18-4.33-.39-6.16-1.18-3.39-1.91-4.67-3.39c-1.29-1.47-2.27-3.24-2.95-5.3-.68-2.06-1.02-4.36-1.02-6.92ZM284.89,168.33v1.6c0,1.55.14,2.95.41,4.2.27,1.25.68,2.33,1.24,3.21.55.89,1.24,1.57,2.07,2.04.83.47,1.79.71,2.9.71s2.08-.24,2.92-.71c.84-.47,1.52-1.15,2.05-2.04s.93-1.96,1.19-3.21c.26-1.25.39-2.65.39-4.2v-1.6c0-1.53-.14-2.91-.42-4.16s-.7-2.32-1.24-3.21c-.54-.9-1.23-1.59-2.05-2.09-.83-.49-1.79-.74-2.9-.74s-2.04.25-2.85.74c-.82.49-1.5,1.19-2.05,2.09-.55.9-.97,1.97-1.24,3.21-.27,1.24-.41,2.63-.41,4.16Z" style="fill: #fff;"/>
    <path d="M320.33,159.14v26.94h-8.15v-33.93h7.72l.44,6.99ZM329.52,151.93l-.09,7.84c-.42-.08-.9-.15-1.44-.19-.54-.04-1.06-.06-1.54-.06-1.13,0-2.11.17-2.95.5-.84.33-1.53.83-2.09,1.47-.55.65-.98,1.43-1.27,2.34-.29.91-.47,1.95-.53,3.12l-1.69-.25c0-2.17.19-4.18.58-6.02.39-1.84.96-3.44,1.72-4.81.76-1.37,1.71-2.44,2.84-3.2,1.13-.76,2.44-1.15,3.92-1.15.42,0,.88.04,1.38.11s.89.17,1.16.3Z" style="fill: #fff;"/>
    <path d="M356.56,161.46l7.65-5.49c1.19-.88,2-1.73,2.42-2.54.42-.82.63-1.78.63-2.88,0-1.02-.34-1.98-1.02-2.85-.68-.88-1.64-1.32-2.87-1.32-.88,0-1.62.23-2.21.69-.6.46-1.04,1.07-1.33,1.82-.29.75-.44,1.59-.44,2.51s.23,1.9.69,2.87c.46.97,1.08,2,1.87,3.07.78,1.08,1.66,2.24,2.62,3.5l19.73,25.25h-9.35l-15.96-20.48c-1.38-1.84-2.6-3.53-3.65-5.07-1.06-1.54-1.88-3.03-2.48-4.48-.6-1.45-.89-2.95-.89-4.5,0-2.4.47-4.49,1.41-6.24.94-1.76,2.27-3.12,3.98-4.09,1.71-.97,3.73-1.46,6.05-1.46,2.17,0,4.07.48,5.68,1.44,1.61.96,2.85,2.22,3.73,3.78.88,1.56,1.32,3.28,1.32,5.16,0,1.42-.24,2.73-.71,3.94-.47,1.2-1.12,2.3-1.96,3.31-.84,1-1.83,1.93-2.98,2.79l-9.19,7.06c-.77.77-1.35,1.54-1.74,2.29-.39.75-.64,1.45-.77,2.1-.12.65-.19,1.24-.19,1.79,0,1.25.25,2.39.74,3.4.49,1.01,1.18,1.81,2.07,2.4.89.58,1.94.88,3.15.88,1.55,0,3.04-.38,4.48-1.14,1.44-.76,2.74-1.86,3.9-3.29,1.16-1.43,2.08-3.13,2.76-5.1.68-1.96,1.02-4.14,1.02-6.52h6.99c0,2.3-.2,4.47-.61,6.52-.41,2.05-1.08,3.95-2.01,5.69-.93,1.75-2.16,3.3-3.69,4.66-.13.13-.29.29-.49.5s-.37.38-.52.5c-1.74,1.63-3.62,2.84-5.66,3.64s-4.23,1.19-6.57,1.19c-2.82,0-5.26-.55-7.32-1.66-2.06-1.11-3.65-2.64-4.77-4.59-1.12-1.95-1.68-4.19-1.68-6.7,0-1.84.35-3.46,1.04-4.85.69-1.39,1.65-2.68,2.87-3.87s2.64-2.39,4.25-3.61Z" style="fill: #fff;"/>
    <path d="M404.63,140.42h7.18l1.19,30.58v15.08h-8.37v-45.66ZM407.99,140.42h7.46l11.2,33.49,11.17-33.49h7.15l-15.24,45.66h-6.15l-15.59-45.66ZM441.45,140.42h7.21v45.66h-8.37v-15.08l1.16-30.58Z" style="fill: #fff;"/>
    <path d="M455.22,169.93v-1.6c0-2.55.34-4.86,1.02-6.93.68-2.07,1.66-3.84,2.95-5.3,1.29-1.46,2.83-2.59,4.64-3.39,1.81-.79,3.85-1.19,6.13-1.19s4.36.4,6.18,1.19,3.37,1.92,4.66,3.39c1.29,1.46,2.26,3.23,2.93,5.3.67,2.07,1,4.38,1,6.93v1.6c0,2.55-.33,4.86-1,6.92-.67,2.06-1.65,3.83-2.93,5.3-1.29,1.47-2.83,2.6-4.64,3.39s-3.85,1.18-6.13,1.18-4.33-.39-6.16-1.18c-1.83-.78-3.39-1.91-4.67-3.39-1.29-1.47-2.27-3.24-2.95-5.3-.68-2.06-1.02-4.36-1.02-6.92ZM463.41,168.33v1.6c0,1.55.14,2.95.41,4.2.27,1.25.68,2.33,1.24,3.21s1.24,1.57,2.07,2.04c.83.47,1.79.71,2.9.71s2.08-.24,2.92-.71c.84-.47,1.52-1.15,2.05-2.04s.93-1.96,1.19-3.21c.26-1.25.39-2.65.39-4.2v-1.6c0-1.53-.14-2.91-.42-4.16s-.7-2.32-1.24-3.21c-.54-.9-1.23-1.59-2.05-2.09-.83-.49-1.79-.74-2.9-.74s-2.04.25-2.85.74c-.82.49-1.5,1.19-2.05,2.09-.55.9-.97,1.97-1.24,3.21-.27,1.24-.41,2.63-.41,4.16Z" style="fill: #fff;"/>
    <path d="M505.84,152.15v6.05h-18.22v-6.05h18.22ZM492.35,143.81h8.19v32.43c0,1,.12,1.77.36,2.3s.6.89,1.07,1.08c.47.19,1.04.28,1.71.28.5,0,.96-.03,1.38-.09.42-.06.76-.12,1.03-.19l-.03,6.3c-.65.23-1.37.42-2.16.56s-1.72.22-2.79.22c-1.74,0-3.26-.32-4.58-.96-1.32-.64-2.34-1.68-3.07-3.12-.73-1.44-1.1-3.34-1.1-5.71v-33.12Z" style="fill: #fff;"/>
    <path d="M511.2,143.3c0-1.25.41-2.29,1.22-3.12s1.93-1.24,3.36-1.24,2.51.41,3.32,1.24,1.22,1.87,1.22,3.12-.41,2.23-1.22,3.06-1.92,1.24-3.32,1.24-2.54-.41-3.36-1.24-1.22-1.85-1.22-3.06ZM519.86,152.15v33.93h-8.19v-33.93h8.19Z" style="fill: #fff;"/>
    <path d="M526.23,169.93v-1.6c0-2.55.34-4.86,1.02-6.93.68-2.07,1.66-3.84,2.95-5.3,1.29-1.46,2.83-2.59,4.64-3.39,1.81-.79,3.85-1.19,6.13-1.19s4.36.4,6.18,1.19,3.37,1.92,4.66,3.39c1.29,1.46,2.26,3.23,2.93,5.3.67,2.07,1,4.38,1,6.93v1.6c0,2.55-.33,4.86-1,6.92-.67,2.06-1.65,3.83-2.93,5.3-1.29,1.47-2.83,2.6-4.64,3.39s-3.85,1.18-6.13,1.18-4.33-.39-6.16-1.18c-1.83-.78-3.39-1.91-4.67-3.39-1.29-1.47-2.27-3.24-2.95-5.3-.68-2.06-1.02-4.36-1.02-6.92ZM534.41,168.33v1.6c0,1.55.14,2.95.41,4.2.27,1.25.68,2.33,1.24,3.21s1.24,1.57,2.07,2.04c.83.47,1.79.71,2.9.71s2.08-.24,2.92-.71c.84-.47,1.52-1.15,2.05-2.04s.93-1.96,1.19-3.21c.26-1.25.39-2.65.39-4.2v-1.6c0-1.53-.14-2.91-.42-4.16s-.7-2.32-1.24-3.21c-.54-.9-1.23-1.59-2.05-2.09-.83-.49-1.79-.74-2.9-.74s-2.04.25-2.85.74c-.82.49-1.5,1.19-2.05,2.09-.55.9-.97,1.97-1.24,3.21-.27,1.24-.41,2.63-.41,4.16Z" style="fill: #fff;"/>
    <path d="M569.73,159.39v26.69h-8.19v-33.93h7.65l.53,7.24ZM568.41,167.89l-2.38.03c-.02-2.49.26-4.74.85-6.74.58-2.01,1.43-3.73,2.52-5.17s2.4-2.55,3.92-3.32c1.52-.77,3.2-1.16,5.06-1.16,1.48,0,2.83.23,4.05.69,1.21.46,2.26,1.19,3.14,2.2.88,1,1.55,2.32,2.02,3.94.47,1.62.71,3.61.71,5.97v21.77h-8.22v-21.8c0-1.55-.19-2.76-.56-3.64-.38-.88-.94-1.51-1.68-1.88s-1.66-.56-2.74-.56-2.05.25-2.89.75c-.84.5-1.54,1.2-2.1,2.08-.56.89-.99,1.92-1.29,3.09s-.43,2.42-.41,3.76Z" style="fill: #fff;"/>
    <path d="M619.81,140.42v45.66h-8.5v-45.66h8.5ZM623.92,186.08h-8.94l.06-6.87h8.88c2.49,0,4.52-.51,6.08-1.52,1.57-1.01,2.73-2.53,3.48-4.55.75-2.02,1.13-4.52,1.13-7.51v-4.8c0-2.3-.21-4.3-.63-5.99-.42-1.69-1.06-3.09-1.93-4.2-.87-1.11-1.96-1.94-3.28-2.49-1.32-.55-2.88-.83-4.67-.83h-9.28v-6.9h9.28c2.84,0,5.43.47,7.76,1.41,2.33.94,4.34,2.29,6.02,4.06,1.68,1.77,2.98,3.92,3.89,6.44.91,2.53,1.36,5.38,1.36,8.56v4.74c0,3.18-.46,6.03-1.36,8.55-.91,2.52-2.21,4.66-3.9,6.43s-3.72,3.12-6.07,4.06c-2.35.94-4.98,1.41-7.89,1.41Z" style="fill: #fff;"/>
    <path d="M664.13,186.71c-2.4,0-4.56-.38-6.46-1.14-1.9-.76-3.52-1.85-4.85-3.26-1.33-1.41-2.34-3.09-3.03-5.05-.69-1.96-1.04-4.13-1.04-6.54v-2.13c0-2.72.34-5.13,1.04-7.25.69-2.11,1.67-3.9,2.95-5.36,1.27-1.46,2.8-2.57,4.58-3.32,1.78-.75,3.75-1.13,5.93-1.13s4.24.38,5.96,1.13c1.71.75,3.14,1.84,4.28,3.26,1.14,1.42,2,3.15,2.57,5.19.58,2.04.86,4.34.86,6.92v3.67h-24.49v-5.8h16.47v-.69c-.04-1.4-.26-2.63-.64-3.69s-.99-1.88-1.8-2.48-1.9-.89-3.26-.89c-1.07,0-2,.22-2.79.67-.79.45-1.44,1.11-1.95,1.98-.5.87-.88,1.96-1.13,3.26-.25,1.31-.38,2.82-.38,4.53v2.13c0,1.53.17,2.87.52,4.03.34,1.16.85,2.14,1.5,2.93.66.79,1.46,1.4,2.42,1.8.95.41,2.04.61,3.28.61,1.67,0,3.17-.32,4.49-.96,1.32-.64,2.47-1.54,3.45-2.71l3.76,4.61c-.67.94-1.56,1.84-2.68,2.71-1.12.87-2.47,1.58-4.06,2.13s-3.42.83-5.49.83Z" style="fill: #fff;"/>
    <path d="M699.47,176.92c0-.69-.2-1.3-.6-1.83s-1.07-1.05-2.02-1.54c-.95-.49-2.29-1-4-1.52-1.67-.5-3.18-1.06-4.52-1.68-1.34-.62-2.49-1.33-3.45-2.13-.96-.8-1.69-1.74-2.2-2.81s-.75-2.3-.75-3.7.28-2.71.85-3.94c.56-1.22,1.38-2.3,2.46-3.25,1.08-.94,2.38-1.68,3.91-2.21,1.53-.53,3.25-.8,5.17-.8,2.7,0,5.01.46,6.95,1.38,1.93.92,3.42,2.19,4.45,3.79,1.04,1.61,1.55,3.45,1.55,5.52h-8.15c0-.86-.17-1.63-.52-2.32-.34-.69-.87-1.24-1.58-1.66-.71-.42-1.61-.63-2.7-.63-.96,0-1.78.17-2.45.52-.67.34-1.18.79-1.54,1.35s-.53,1.19-.53,1.9c0,.5.1.96.31,1.36.21.41.55.78,1.02,1.13.47.34,1.11.68,1.91,1.02.8.33,1.81.69,3.03,1.07,2.38.69,4.42,1.47,6.12,2.35,1.69.88,2.99,1.98,3.89,3.29.9,1.32,1.35,2.97,1.35,4.96,0,1.51-.31,2.88-.93,4.11-.62,1.23-1.5,2.31-2.63,3.21s-2.51,1.61-4.11,2.1c-1.6.49-3.39.74-5.38.74-2.91,0-5.36-.55-7.37-1.65-2.01-1.1-3.52-2.5-4.55-4.2s-1.54-3.49-1.54-5.35h7.81c.06,1.28.37,2.29.91,3.03.54.74,1.24,1.27,2.1,1.58s1.78.47,2.76.47c1.09,0,2-.15,2.73-.46.73-.3,1.29-.73,1.66-1.29.38-.55.56-1.2.56-1.93Z" style="fill: #fff;"/>
    <path d="M713.52,143.3c0-1.25.41-2.29,1.22-3.12s1.93-1.24,3.36-1.24,2.51.41,3.32,1.24,1.22,1.87,1.22,3.12-.41,2.23-1.22,3.06-1.92,1.24-3.32,1.24-2.54-.41-3.36-1.24-1.22-1.85-1.22-3.06ZM722.18,152.15v33.93h-8.19v-33.93h8.19Z" style="fill: #fff;"/>
    <path d="M728.61,169.96v-1.57c0-2.68.28-5.06.85-7.15s1.39-3.86,2.48-5.3c1.09-1.44,2.41-2.54,3.97-3.29,1.56-.75,3.31-1.13,5.25-1.13s3.74.4,5.14,1.19,2.55,1.93,3.45,3.4c.9,1.47,1.6,3.21,2.12,5.21.51,2,.9,4.21,1.18,6.63v2.63c-.25,2.32-.66,4.46-1.24,6.43-.58,1.97-1.34,3.67-2.29,5.13s-2.12,2.58-3.5,3.37-3.02,1.19-4.92,1.19-3.65-.39-5.19-1.16c-1.54-.77-2.85-1.89-3.95-3.36s-1.93-3.23-2.49-5.3c-.56-2.07-.85-4.38-.85-6.93ZM749.59,152.15h7.4v33.46c0,3.05-.62,5.61-1.85,7.67-1.23,2.06-2.96,3.6-5.17,4.63-2.22,1.02-4.79,1.54-7.72,1.54-1.19,0-2.51-.17-3.95-.5-1.44-.33-2.84-.85-4.19-1.55s-2.47-1.59-3.37-2.68l3.29-5.24c1,1.13,2.2,2,3.58,2.62,1.38.62,2.79.92,4.23.92s2.74-.26,3.76-.77c1.02-.51,1.81-1.31,2.37-2.4.55-1.09.83-2.47.83-4.14v-25.78l.78-7.78ZM736.76,168.39v1.57c0,1.57.13,2.97.39,4.2.26,1.23.65,2.29,1.18,3.15.52.87,1.2,1.53,2.02,1.99.83.46,1.8.69,2.93.69,1.53,0,2.76-.34,3.72-1.02.95-.68,1.67-1.61,2.16-2.79.49-1.18.81-2.52.96-4.03v-5.74c-.08-1.21-.28-2.32-.58-3.31s-.73-1.86-1.27-2.59c-.54-.73-1.22-1.3-2.04-1.71-.82-.41-1.78-.61-2.89-.61s-2.11.24-2.93.71c-.83.47-1.51,1.15-2.04,2.02s-.94,1.94-1.21,3.2c-.27,1.25-.41,2.68-.41,4.26Z" style="fill: #fff;"/>
    <path d="M772.23,159.39v26.69h-8.19v-33.93h7.65l.53,7.24ZM770.91,167.89l-2.38.03c-.02-2.49.26-4.74.85-6.74.59-2.01,1.43-3.73,2.53-5.17s2.4-2.55,3.92-3.32c1.52-.77,3.2-1.16,5.07-1.16,1.48,0,2.83.23,4.04.69s2.26,1.19,3.14,2.2,1.55,2.32,2.02,3.94c.47,1.62.71,3.61.71,5.97v21.77h-8.22v-21.8c0-1.55-.19-2.76-.56-3.64-.38-.88-.94-1.51-1.68-1.88-.74-.38-1.66-.56-2.74-.56s-2.05.25-2.89.75c-.84.5-1.54,1.2-2.1,2.08-.56.89-.99,1.92-1.29,3.09-.29,1.17-.43,2.42-.41,3.76Z" style="fill: #fff;"/>
    <path d="M812.15,186.71c-2.4,0-4.56-.38-6.46-1.14-1.9-.76-3.52-1.85-4.85-3.26-1.33-1.41-2.34-3.09-3.03-5.05-.69-1.96-1.04-4.13-1.04-6.54v-2.13c0-2.72.34-5.13,1.04-7.25.69-2.11,1.67-3.9,2.95-5.36,1.27-1.46,2.8-2.57,4.58-3.32,1.78-.75,3.75-1.13,5.93-1.13s4.24.38,5.96,1.13c1.71.75,3.14,1.84,4.28,3.26,1.14,1.42,2,3.15,2.57,5.19.58,2.04.86,4.34.86,6.92v3.67h-24.49v-5.8h16.47v-.69c-.04-1.4-.26-2.63-.64-3.69s-.99-1.88-1.8-2.48-1.9-.89-3.26-.89c-1.07,0-2,.22-2.79.67-.79.45-1.44,1.11-1.95,1.98-.5.87-.88,1.96-1.13,3.26-.25,1.31-.38,2.82-.38,4.53v2.13c0,1.53.17,2.87.52,4.03.34,1.16.85,2.14,1.5,2.93.66.79,1.46,1.4,2.42,1.8.95.41,2.04.61,3.28.61,1.67,0,3.17-.32,4.49-.96,1.32-.64,2.47-1.54,3.45-2.71l3.76,4.61c-.67.94-1.56,1.84-2.68,2.71-1.12.87-2.47,1.58-4.06,2.13s-3.42.83-5.49.83Z" style="fill: #fff;"/>
    <path d="M838.62,159.14v26.94h-8.15v-33.93h7.72l.44,6.99ZM847.81,151.93l-.09,7.84c-.42-.08-.9-.15-1.44-.19s-1.06-.06-1.54-.06c-1.13,0-2.11.17-2.95.5-.84.33-1.53.83-2.09,1.47-.55.65-.98,1.43-1.27,2.34-.29.91-.47,1.95-.53,3.12l-1.69-.25c0-2.17.19-4.18.58-6.02.39-1.84.96-3.44,1.72-4.81.76-1.37,1.71-2.44,2.84-3.2,1.13-.76,2.44-1.15,3.92-1.15.42,0,.88.04,1.38.11s.89.17,1.16.3Z" style="fill: #fff;"/>
  </g>
</svg>